<svg xmlns="http://www.w3.org/2000/svg" viewBox="0 0 96 96"><rect width="96" height="96" rx="26" fill="#e9eedf"/><g stroke="#625747" stroke-width="3.3" stroke-linecap="round" stroke-linejoin="round"><path d="M27 34Q14 9 24 10Q37 14 39 32M62 28Q79 12 82 26L75 49" fill="#ddb681"/><path d="M24 34Q47 19 69 33Q85 49 73 67Q51 84 28 68Q14 52 24 34Z" fill="#f2d3a2"/><path d="M31 67L48 76L64 68L53 87L43 86Z" fill="#94ae91"/><path d="M42 54Q49 60 56 54" fill="none"/><path d="M46 49L51 49L49 52Z" fill="#625747"/><circle cx="34" cy="45" r="1.7" fill="#625747"/><circle cx="62" cy="45" r="1.7" fill="#625747"/></g><ellipse cx="28" cy="54" rx="5" ry="3" fill="#e5b19b"/><ellipse cx="68" cy="54" rx="5" ry="3" fill="#e5b19b"/></svg>
